STARTFONT 2.1
COMMENT
COMMENT Converted from OpenType font "Font 90 Icons.ttf" by "otf2bdf 3.0".
COMMENT
FONT -FreeType-Font 90 Icons-Medium-R-Normal--17-120-100-100-P-65-ISO10646-1
SIZE 12 100 100
FONTBOUNDINGBOX 18 18 0 -4
STARTPROPERTIES 19
FOUNDRY "FreeType"
FAMILY_NAME "Font 90 Icons"
WEIGHT_NAME "Medium"
SLANT "R"
SETWIDTH_NAME "Normal"
ADD_STYLE_NAME ""
PIXEL_SIZE 17
POINT_SIZE 120
RESOLUTION_X 100
RESOLUTION_Y 100
SPACING "P"
AVERAGE_WIDTH 65
CHARSET_REGISTRY "ISO10646"
CHARSET_ENCODING "1"
FONT_ASCENT 14
FONT_DESCENT 3
COPYRIGHT "Typeface © (el-harrak.blogspot.com). <darrati10@gmail.com>. All Rights Reserved"
_OTF_FONTFILE "Font 90 Icons.ttf"
_OTF_PSNAME "Font 90 Icons"
ENDPROPERTIES
CHARS 242
STARTCHAR 0000
ENCODING 0
SWIDTH 0 0
DWIDTH 0 0
BBX 0 0 0 0
BITMAP
ENDCHAR
STARTCHAR 001D
ENCODING 29
SWIDTH 0 0
DWIDTH 0 0
BBX 0 0 0 0
BITMAP
ENDCHAR
STARTCHAR 0020
ENCODING 32
SWIDTH 240 0
DWIDTH 4 0
BBX 0 0 0 0
BITMAP
ENDCHAR
STARTCHAR 0021
ENCODING 33
SWIDTH 1020 0
DWIDTH 17 0
BBX 16 17 0 -3
BITMAP
01E0
0FD8
1FE4
3FF2
7E71
7E71
FFF1
FFE1
FF81
FC01
F801
7881
7181
3802
1804
0C18
03E0
ENDCHAR
STARTCHAR 0022
ENCODING 34
SWIDTH 1020 0
DWIDTH 17 0
BBX 17 13 0 -1
BITMAP
03E000
022000
7FFF00
FFFF00
FFFF80
FFFF80
FFFF80
FFFF80
FFFF80
FFFF80
FFFF80
FFFF80
FFFF00
ENDCHAR
STARTCHAR 0023
ENCODING 35
SWIDTH 1020 0
DWIDTH 17 0
BBX 15 17 1 -3
BITMAP
1F00
BFE4
FFFC
FFFC
DFFC
DFFC
5FFE
7FFE
783E
6006
6000
6000
2000
3000
3000
3000
3000
ENDCHAR
STARTCHAR 0024
ENCODING 36
SWIDTH 1020 0
DWIDTH 17 0
BBX 16 17 0 -3
BITMAP
1000
7800
FC00
FE00
7F00
3F80
1FC0
1F80
0F80
0640
0420
0010
0008
0004
0002
0001
0001
ENDCHAR
STARTCHAR 0025
ENCODING 37
SWIDTH 1020 0
DWIDTH 17 0
BBX 15 17 1 -3
BITMAP
0300
0380
0FE0
3FF4
FB3E
F11E
793C
CFEC
C38C
C7CC
F97C
F13E
F33E
FFF4
1FE0
0380
0380
ENDCHAR
STARTCHAR 0026
ENCODING 38
SWIDTH 1020 0
DWIDTH 17 0
BBX 16 17 0 -3
BITMAP
01C0
0E30
100C
27F6
4FFA
5FF9
9FDD
BFBD
BF7D
BF7D
9FFD
5FFD
4FFA
27F2
118C
0C38
03C0
ENDCHAR
STARTCHAR 0027
ENCODING 39
SWIDTH 1020 0
DWIDTH 17 0
BBX 16 17 0 -3
BITMAP
0700
1FC0
3FE0
7070
6238
E238
FFF8
EFB8
E238
7270
78F8
3FFC
0FFE
003F
001F
000F
0007
ENDCHAR
STARTCHAR 0028
ENCODING 40
SWIDTH 1020 0
DWIDTH 17 0
BBX 16 17 0 -3
BITMAP
0700
1FC0
3FE0
7070
6038
E038
FFB8
E038
E038
7070
7DF8
3FFC
0FFE
003F
001F
000F
0007
ENDCHAR
STARTCHAR 0029
ENCODING 41
SWIDTH 1020 0
DWIDTH 17 0
BBX 16 12 0 -1
BITMAP
FFFF
E003
B005
9809
8C11
8621
8751
8989
9005
A003
C001
FFFF
ENDCHAR
STARTCHAR 002A
ENCODING 42
SWIDTH 1020 0
DWIDTH 17 0
BBX 14 17 1 -3
BITMAP
0300
0300
0300
0300
1320
1FF0
0FC0
77BC
BB7C
DCFC
EFFC
F7FC
FBBC
FCDC
FFEC
FFF4
FFFC
ENDCHAR
STARTCHAR 002B
ENCODING 43
SWIDTH 1020 0
DWIDTH 17 0
BBX 16 17 0 -3
BITMAP
FFFF
FFFF
FFFF
C7F1
C7E1
D3E5
FFFF
FFFF
FFFF
FFFF
FFFF
D3E5
C3E1
C7F1
CFF9
FFFF
FFFF
ENDCHAR
STARTCHAR 002C
ENCODING 44
SWIDTH 1020 0
DWIDTH 17 0
BBX 16 17 0 -3
BITMAP
0004
007E
00FF
01F3
03FB
07FF
0FFF
1FFF
3BFE
75FC
FAF8
7D70
3EE0
1FC0
0F80
0700
0200
ENDCHAR
STARTCHAR 002D
ENCODING 45
SWIDTH 1020 0
DWIDTH 17 0
BBX 16 17 0 -3
BITMAP
01C0
0E70
180C
3026
4822
4461
87E1
87E1
87E1
87E1
87E1
4061
402A
2016
100C
0E38
03C0
ENDCHAR
STARTCHAR 002E
ENCODING 46
SWIDTH 1020 0
DWIDTH 17 0
BBX 14 17 1 -3
BITMAP
7FFC
4004
4004
4004
4004
4004
4004
4004
7FFC
0000
7FFC
7FFC
7FFC
0100
0100
07C0
FFFC
ENDCHAR
STARTCHAR 002F
ENCODING 47
SWIDTH 1020 0
DWIDTH 17 0
BBX 16 17 0 -3
BITMAP
21C2
23E6
B7E5
97E5
57ED
57ED
57ED
57ED
57ED
57ED
97E5
B3E5
23C6
21C2
01C0
01C0
01C0
ENDCHAR
STARTCHAR 0030
ENCODING 48
SWIDTH 1020 0
DWIDTH 17 0
BBX 16 17 0 -3
BITMAP
0180
0FF0
1FFC
3FEE
73E6
61C3
C183
C343
C241
FE7F
FFFF
7E3F
7C1F
381E
1C3C
0FF8
03E0
ENDCHAR
STARTCHAR 0031
ENCODING 49
SWIDTH 1020 0
DWIDTH 17 0
BBX 16 17 0 -3
BITMAP
01C0
01C0
0DD0
1DDC
3DDE
71CE
61C7
61C3
E1C3
E1C3
E003
6007
7007
780E
3C3C
1FF8
07F0
ENDCHAR
STARTCHAR 0032
ENCODING 50
SWIDTH 1020 0
DWIDTH 17 0
BBX 15 17 1 -3
BITMAP
0300
0380
0380
0304
E30E
F11E
793C
0FE0
0380
07C0
7978
F13E
E31E
C304
0380
0380
0380
ENDCHAR
STARTCHAR 0033
ENCODING 51
SWIDTH 1020 0
DWIDTH 17 0
BBX 16 15 0 -2
BITMAP
0080
0180
01C0
03C0
03E0
BFFE
7FFF
3FFE
1FFC
0FF8
0FF8
0FF8
0FF8
0E38
1808
ENDCHAR
STARTCHAR 0034
ENCODING 52
SWIDTH 1020 0
DWIDTH 17 0
BBX 16 12 0 -1
BITMAP
7FFF
FFFD
FFFB
FFF7
FFEF
FFDF
FDAF
FFF7
FFFB
FFFD
FFFF
7FFE
ENDCHAR
STARTCHAR 0035
ENCODING 53
SWIDTH 1020 0
DWIDTH 17 0
BBX 16 12 0 -1
BITMAP
01D8
06B8
0BD8
37F4
5FFA
9FFD
1FFC
1E3C
1E3C
1E3C
1E3C
1E3C
ENDCHAR
STARTCHAR 0036
ENCODING 54
SWIDTH 1020 0
DWIDTH 17 0
BBX 16 17 0 -3
BITMAP
181C
381C
1008
7C3E
FE3E
BA7F
BA5D
BA7F
BAFF
BA3E
287E
287F
2814
2814
2814
2814
2814
ENDCHAR
STARTCHAR 0037
ENCODING 55
SWIDTH 1020 0
DWIDTH 17 0
BBX 16 13 0 -1
BITMAP
0700
19C0
38E0
78F0
79F0
8F18
8708
8F18
F8F0
78F0
38F0
1DD7
0F0C
ENDCHAR
STARTCHAR 0038
ENCODING 56
SWIDTH 1020 0
DWIDTH 17 0
BBX 13 17 2 -3
BITMAP
FFF8
8018
8018
8018
8018
FFF8
8998
8998
FFF8
FFF8
8998
8998
FFF8
8998
8998
8998
FFF8
ENDCHAR
STARTCHAR 0039
ENCODING 57
SWIDTH 1020 0
DWIDTH 17 0
BBX 16 15 0 -2
BITMAP
C000
6000
27FF
17FF
17FE
17FE
1BFC
0BFC
0800
0800
0FFE
0000
0C0E
1E0E
0E0E
ENDCHAR
STARTCHAR 003A
ENCODING 58
SWIDTH 1020 0
DWIDTH 17 0
BBX 16 17 0 -3
BITMAP
0010
007E
00FF
01F3
01F3
01FF
01FF
02FF
06FE
0F3C
1FC0
3F00
7E00
F800
F800
F000
7000
ENDCHAR
STARTCHAR 003B
ENCODING 59
SWIDTH 1020 0
DWIDTH 17 0
BBX 17 17 0 -3
BITMAP
008000
008000
008000
008000
008000
008000
008000
008000
FFFF80
008000
008000
008000
008000
008000
008000
008000
008000
ENDCHAR
STARTCHAR 003C
ENCODING 60
SWIDTH 1020 0
DWIDTH 17 0
BBX 16 13 0 -1
BITMAP
0080
01C0
01C0
0360
0620
0430
0C10
0818
180C
3004
2006
6002
C003
ENDCHAR
STARTCHAR 003D
ENCODING 61
SWIDTH 1020 0
DWIDTH 17 0
BBX 16 17 0 -3
BITMAP
03C0
0C38
1004
2B82
4462
4431
8431
8461
87C1
84C1
8441
4461
4631
2F1A
1004
0C18
03E0
ENDCHAR
STARTCHAR 003E
ENCODING 62
SWIDTH 1020 0
DWIDTH 17 0
BBX 16 17 0 -3
BITMAP
01C0
0E30
100C
21EA
4612
4C09
9809
9801
9801
9801
9801
4C09
4611
21E2
1004
0C18
03E0
ENDCHAR
STARTCHAR 003F
ENCODING 63
SWIDTH 1020 0
DWIDTH 17 0
BBX 16 17 0 -3
BITMAP
0080
0FF0
1E3C
380E
6006
6003
C003
C001
C001
C001
C003
6003
6006
300E
1C1C
0FF8
03C0
ENDCHAR
STARTCHAR 0040
ENCODING 64
SWIDTH 1020 0
DWIDTH 17 0
BBX 16 17 0 -3
BITMAP
0080
0080
0180
01C0
03C0
03E0
07E0
07F0
0FF0
0FF8
1FF8
1FFC
3FFC
3FFE
7FFE
7FFF
FFFF
ENDCHAR
STARTCHAR 0041
ENCODING 65
SWIDTH 1020 0
DWIDTH 17 0
BBX 16 15 0 -2
BITMAP
8200
E300
F3C0
FBE0
FDF0
FF7C
FFBE
FFDF
FFBE
FF7C
FEF8
FBE0
F3C0
E380
8200
ENDCHAR
STARTCHAR 0042
ENCODING 66
SWIDTH 1020 0
DWIDTH 17 0
BBX 14 17 1 -3
BITMAP
801C
E01C
F01C
FC1C
FF1C
FF9C
FFFC
FFFC
FFFC
FFFC
FFFC
FFDC
FF1C
FC1C
F81C
E01C
801C
ENDCHAR
STARTCHAR 0043
ENCODING 67
SWIDTH 1020 0
DWIDTH 17 0
BBX 13 17 2 -3
BITMAP
F9F8
F9F8
F9F8
F9F8
F9F8
F9F8
F9F8
F9F8
F9F8
F9F8
F9F8
F9F8
F9F8
F9F8
F9F8
F9F8
F9F8
ENDCHAR
STARTCHAR 0044
ENCODING 68
SWIDTH 1020 0
DWIDTH 17 0
BBX 14 17 1 -3
BITMAP
8000
E000
F000
FC00
FF00
FF80
FFE0
FFF8
FFFC
FFF8
FFE0
FFC0
FF00
FC00
F800
E000
8000
ENDCHAR
STARTCHAR 0045
ENCODING 69
SWIDTH 1020 0
DWIDTH 17 0
BBX 16 17 0 -3
BITMAP
0180
0FF0
1FFC
3FFE
7FFE
7C3F
F81F
F80F
F80F
F80F
F81F
7C3F
7FFE
3FFE
1FFC
0FF8
03C0
ENDCHAR
STARTCHAR 0046
ENCODING 70
SWIDTH 1020 0
DWIDTH 17 0
BBX 16 16 0 -3
BITMAP
FFFF
FFFF
FFFF
FFFF
FFFF
FFFF
FFFF
FFFF
FFFF
FFFF
FFFF
FFFF
FFFF
FFFF
FFFF
FFFF
ENDCHAR
STARTCHAR 0047
ENCODING 71
SWIDTH 1020 0
DWIDTH 17 0
BBX 14 17 1 -3
BITMAP
F004
F00C
F03C
F07C
F1FC
F7FC
FFFC
FFFC
FFFC
FFFC
FFFC
F7FC
F1FC
F0FC
F03C
F01C
F004
ENDCHAR
STARTCHAR 0048
ENCODING 72
SWIDTH 1020 0
DWIDTH 17 0
BBX 16 15 0 -2
BITMAP
0021
00E3
01E7
03FF
0FBF
1F7F
3FFF
FBFF
7DFF
1F7F
0FBF
07DF
01E7
00E3
0061
ENDCHAR
STARTCHAR 0049
ENCODING 73
SWIDTH 1020 0
DWIDTH 17 0
BBX 16 17 0 -3
BITMAP
D000
D800
D800
D900
D9C0
D9E0
D9F8
D9FE
D9FF
D9FE
D9F8
D9F0
D9C0
D900
D800
D800
D000
ENDCHAR
STARTCHAR 004A
ENCODING 74
SWIDTH 1020 0
DWIDTH 17 0
BBX 16 16 0 -3
BITMAP
0080
01C0
03C0
07E0
07F0
0FF8
1FFC
3FFC
3FFE
7FFF
8000
0000
FFFF
FFFF
FFFF
FFFF
ENDCHAR
STARTCHAR 004B
ENCODING 75
SWIDTH 1020 0
DWIDTH 17 0
BBX 16 17 0 -3
BITMAP
0002
000E
000C
001C
0018
7FF8
7FF0
FFF8
03F8
00FC
01DE
019E
030F
1F07
0703
0101
0100
ENDCHAR
STARTCHAR 004C
ENCODING 76
SWIDTH 1020 0
DWIDTH 17 0
BBX 14 17 1 -3
BITMAP
0010
0010
1FF0
3FF8
60F8
80FC
00FC
0180
0000
0100
FE00
7C00
7C0C
3FF8
3FF0
3000
1000
ENDCHAR
STARTCHAR 004D
ENCODING 77
SWIDTH 1020 0
DWIDTH 17 0
BBX 16 14 0 -2
BITMAP
0FC0
3FF0
7038
6018
E01C
C07F
C03E
C01E
E00C
6000
7020
3FE0
1FE0
0100
ENDCHAR
STARTCHAR 004E
ENCODING 78
SWIDTH 1020 0
DWIDTH 17 0
BBX 16 11 0 0
BITMAP
0007
000F
001F
603E
F07C
F8F8
7DF0
3FE0
1FC0
0F80
0700
ENDCHAR
STARTCHAR 004F
ENCODING 79
SWIDTH 1020 0
DWIDTH 17 0
BBX 16 17 0 -3
BITMAP
6000
FE00
FF80
3FE0
03F0
70F8
FE3C
FF3C
1F9E
03CE
01CF
30E7
78E7
FCF7
FC77
7877
3063
ENDCHAR
STARTCHAR 0050
ENCODING 80
SWIDTH 1020 0
DWIDTH 17 0
BBX 15 17 1 -3
BITMAP
07C0
1FE0
3FF0
3838
7018
701C
701C
701C
FFFE
FFFE
FCFE
FCFE
FEFE
FEFE
FCFE
FFFE
FFFE
ENDCHAR
STARTCHAR 0051
ENCODING 81
SWIDTH 1020 0
DWIDTH 17 0
BBX 16 17 0 -3
BITMAP
1FF8
1FF8
1FF8
1FF8
1FF8
1FF8
0080
0080
0080
1FFC
1004
FE7F
FE7F
FE7F
FE7F
FE7F
FE7F
ENDCHAR
STARTCHAR 0052
ENCODING 82
SWIDTH 1020 0
DWIDTH 17 0
BBX 16 9 0 1
BITMAP
0300
0F98
7FDE
7F9F
C303
C003
C003
7FFF
3FFE
ENDCHAR
STARTCHAR 0053
ENCODING 83
SWIDTH 1020 0
DWIDTH 17 0
BBX 16 13 0 -1
BITMAP
0030
0078
FEFC
FFFE
FFFF
E339
DFFF
DFFF
FFFF
BFFF
BFF6
FFFE
7FFE
ENDCHAR
STARTCHAR 0054
ENCODING 84
SWIDTH 1020 0
DWIDTH 17 0
BBX 16 17 0 -3
BITMAP
0180
0FF0
1FFC
3C1E
780E
6C07
E603
E303
E183
E0C3
E063
6037
701E
381E
1FFC
0FF8
03C0
ENDCHAR
STARTCHAR 0055
ENCODING 85
SWIDTH 1020 0
DWIDTH 17 0
BBX 16 15 0 -2
BITMAP
0080
0180
0380
0780
0F80
FF80
FF80
FF9F
FF80
FF80
0F80
0780
0380
0180
0080
ENDCHAR
STARTCHAR 0056
ENCODING 86
SWIDTH 1020 0
DWIDTH 17 0
BBX 16 15 0 -2
BITMAP
0080
0180
0380
0380
0780
FF8C
FF8C
FFBF
FFBF
FF8C
FF8C
0780
0380
0180
0080
ENDCHAR
STARTCHAR 0057
ENCODING 87
SWIDTH 1020 0
DWIDTH 17 0
BBX 16 16 0 -3
BITMAP
3C3E
7E7F
FFFF
FFFF
FFFF
7FFF
7FFE
3FFC
1FFC
0FF8
07F0
03E0
01C0
0080
0080
0080
ENDCHAR
STARTCHAR 0058
ENCODING 88
SWIDTH 1020 0
DWIDTH 17 0
BBX 13 17 2 -3
BITMAP
3000
3000
3000
3000
3000
3600
36D8
B6D8
BFF8
BFF8
BFF8
FFF8
FFF8
FFF8
7FF8
3FF8
3FF8
ENDCHAR
STARTCHAR 0059
ENCODING 89
SWIDTH 1020 0
DWIDTH 17 0
BBX 12 17 2 -3
BITMAP
0600
1680
16C0
16C0
16D0
16D0
16D0
16D0
DED0
DFF0
DFF0
DFF0
FFF0
7FF0
7FF0
3FF0
1FF0
ENDCHAR
STARTCHAR 005A
ENCODING 90
SWIDTH 1020 0
DWIDTH 17 0
BBX 17 17 0 -3
BITMAP
000400
004600
00C200
01DB00
03CB00
07C900
FFC900
FFCD00
FFCD80
FFCD00
FFC900
FFC900
07CB00
03DB00
01C200
00C600
004400
ENDCHAR
STARTCHAR 005B
ENCODING 91
SWIDTH 1020 0
DWIDTH 17 0
BBX 16 16 0 -3
BITMAP
C000
F000
FC00
FF00
FFC0
FFF0
FFFC
FFFF
FFFE
FFF8
FFE0
FF80
FE00
F000
C000
8000
ENDCHAR
STARTCHAR 005C
ENCODING 92
SWIDTH 1020 0
DWIDTH 17 0
BBX 16 17 0 -3
BITMAP
FFFF
7FFF
7FFE
3FFE
3FFC
1FFC
1FF8
0FF8
0FF0
07F0
07E0
03E0
03C0
01C0
0180
0080
0080
ENDCHAR
STARTCHAR 005D
ENCODING 93
SWIDTH 1020 0
DWIDTH 17 0
BBX 16 17 0 -3
BITMAP
0001
0003
000F
003F
00FF
03FF
0FFF
3FFF
FFFF
3FFF
0FFF
03FF
00FF
003F
000F
0003
0001
ENDCHAR
STARTCHAR 005E
ENCODING 94
SWIDTH 1020 0
DWIDTH 17 0
BBX 16 6 0 2
BITMAP
2002
4002
FFFF
4003
2002
1004
ENDCHAR
STARTCHAR 005F
ENCODING 95
SWIDTH 1020 0
DWIDTH 17 0
BBX 6 17 5 -3
BITMAP
10
38
F4
30
30
30
30
30
30
30
30
30
30
30
B4
78
30
ENDCHAR
STARTCHAR 0060
ENCODING 96
SWIDTH 1020 0
DWIDTH 17 0
BBX 6 17 5 -3
BITMAP
10
10
10
10
10
10
10
10
10
10
10
10
10
10
94
78
10
ENDCHAR
STARTCHAR 0061
ENCODING 97
SWIDTH 1020 0
DWIDTH 17 0
BBX 17 9 0 1
BITMAP
000400
0FE600
1FFE00
3FFE00
70FE00
407F00
807F00
00FF00
01FF80
ENDCHAR
STARTCHAR 0062
ENCODING 98
SWIDTH 1020 0
DWIDTH 17 0
BBX 16 9 0 1
BITMAP
2000
33F0
3FFC
3FFC
7F86
7E01
7F01
7F80
FFC0
ENDCHAR
STARTCHAR 0063
ENCODING 99
SWIDTH 1020 0
DWIDTH 17 0
BBX 16 17 0 -4
BITMAP
01C0
03C0
03C0
03C0
03C0
03C0
03C0
03C0
E3C7
FBDF
7FFF
3FFE
1FFC
0FF8
07F0
03E0
01C0
ENDCHAR
STARTCHAR 0064
ENCODING 100
SWIDTH 1020 0
DWIDTH 17 0
BBX 16 16 0 -3
BITMAP
000E
601F
F03F
F07F
F0FE
F9FC
FBF8
FFF0
FFE0
FFC0
FF80
FFC0
FFF8
FFFE
FFFE
7FFC
ENDCHAR
STARTCHAR 0065
ENCODING 101
SWIDTH 1020 0
DWIDTH 17 0
BBX 16 16 0 -3
BITMAP
3000
7803
FC07
7E07
3F0F
1F8F
0FCF
07FF
03FF
01FF
00FF
03FF
1FFF
3FFF
3FFF
3FFF
ENDCHAR
STARTCHAR 0066
ENCODING 102
SWIDTH 1020 0
DWIDTH 17 0
BBX 16 16 0 -3
BITMAP
0100
0380
0780
0F00
1F00
3E00
7FFF
FFFF
FFFF
7FFF
3E00
1F00
0F00
0780
0380
0100
ENDCHAR
STARTCHAR 0067
ENCODING 103
SWIDTH 1020 0
DWIDTH 17 0
BBX 16 15 0 -2
BITMAP
00C0
00E0
00F0
00F8
007C
007E
FFFF
FFFF
FFFF
7FFE
007C
0078
00F0
00E0
00C0
ENDCHAR
STARTCHAR 0068
ENCODING 104
SWIDTH 1020 0
DWIDTH 17 0
BBX 16 17 0 -3
BITMAP
01C0
03E0
07F0
0FF8
1FFC
3FFE
7FFF
FFDF
F3C7
03C0
03C0
03C0
03C0
03C0
03C0
03C0
03C0
ENDCHAR
STARTCHAR 0069
ENCODING 105
SWIDTH 1020 0
DWIDTH 17 0
BBX 16 17 0 -3
BITMAP
7FFC
FFFE
FFFE
FFFC
FFF0
FF80
FF80
FFC0
FFE0
FBF0
F9F8
F0FC
F07E
F03F
601F
000F
0006
ENDCHAR
STARTCHAR 006A
ENCODING 106
SWIDTH 1020 0
DWIDTH 17 0
BBX 16 17 0 -3
BITMAP
1FFE
3FFF
3FFF
1FFF
07FF
00FF
01FF
03FF
07FF
0FEF
1FCF
3F8F
7F07
FE07
FC07
7800
3000
ENDCHAR
STARTCHAR 006B
ENCODING 107
SWIDTH 1020 0
DWIDTH 17 0
BBX 16 14 0 -2
BITMAP
0040
0060
0070
07F8
1FFC
3FFE
7FFF
78FE
E0FC
C0F0
C0C0
8100
8000
8000
ENDCHAR
STARTCHAR 006C
ENCODING 108
SWIDTH 1080 0
DWIDTH 18 0
BBX 18 15 0 -2
BITMAP
010000
030000
070000
0F0000
1FFC00
3FFF00
7FFF80
FFFF80
7F8FC0
1F83C0
0781C0
03C0C0
00C040
000040
000040
ENDCHAR
STARTCHAR 006D
ENCODING 109
SWIDTH 1020 0
DWIDTH 17 0
BBX 15 17 1 -3
BITMAP
0FC0
0FC0
0FC0
0FC0
0FC0
0FC0
0FC0
0FC0
0FC0
8FC2
7FFC
3FF8
1FF0
0FE0
07C0
0380
0100
ENDCHAR
STARTCHAR 006E
ENCODING 110
SWIDTH 1020 0
DWIDTH 17 0
BBX 16 13 0 -1
BITMAP
0100
0200
0600
1E00
3FFF
7FFF
FFFF
7FFF
3FFF
1E00
0E00
0600
0200
ENDCHAR
STARTCHAR 006F
ENCODING 111
SWIDTH 1020 0
DWIDTH 17 0
BBX 16 13 0 -1
BITMAP
0040
0060
0070
0078
FFFC
FFFE
FFFF
FFFE
FFFC
0078
0070
0060
0040
ENDCHAR
STARTCHAR 0070
ENCODING 112
SWIDTH 1020 0
DWIDTH 17 0
BBX 15 17 1 -3
BITMAP
0100
0380
07C0
0FE0
1FF0
3FF0
7FF8
FFFE
0FC0
0FC0
0FC0
0FC0
0FC0
0FC0
0FC0
0FC0
0FC0
ENDCHAR
STARTCHAR 0071
ENCODING 113
SWIDTH 1020 0
DWIDTH 17 0
BBX 15 17 1 -3
BITMAP
0020
0060
0070
00F0
01F8
E1F8
E3FC
E7FE
E060
E060
E060
E060
E0E0
E0E0
7BE0
7FC0
1F80
ENDCHAR
STARTCHAR 0072
ENCODING 114
SWIDTH 1020 0
DWIDTH 17 0
BBX 16 14 0 -2
BITMAP
0300
0F00
1F00
7FFC
FFFE
1F0F
0F07
0303
0003
0003
0007
0FFE
0FFC
0FF0
ENDCHAR
STARTCHAR 0073
ENCODING 115
SWIDTH 1020 0
DWIDTH 17 0
BBX 16 13 0 -1
BITMAP
03E0
1FF8
3FFE
7FFF
FFFF
FFFF
FFFF
7FFF
7FFE
3FFC
0FF0
0300
0E00
ENDCHAR
STARTCHAR 0074
ENCODING 116
SWIDTH 1020 0
DWIDTH 17 0
BBX 16 14 0 -2
BITMAP
FFFF
FFFF
FFFF
FFFF
FFFF
FFFF
FFFF
FFFF
FFFF
FFFF
0180
0100
0200
0400
ENDCHAR
STARTCHAR 0075
ENCODING 117
SWIDTH 1020 0
DWIDTH 17 0
BBX 16 13 0 -1
BITMAP
03E0
1FFC
3FFE
7FFF
FFFF
FFFF
FFFF
7FFF
7FFE
3FFC
07F0
0060
0030
ENDCHAR
STARTCHAR 0076
ENCODING 118
SWIDTH 1020 0
DWIDTH 17 0
BBX 16 14 0 -2
BITMAP
FFFF
FFFF
FFFF
FFFF
FFFF
FFFF
FFFF
FFFF
FFFF
FFFF
01C0
0040
0020
0020
ENDCHAR
STARTCHAR 0077
ENCODING 119
SWIDTH 1020 0
DWIDTH 17 0
BBX 16 17 0 -3
BITMAP
0080
01C0
11CC
3FFE
3FFC
1FFC
3E38
7C1F
FC1F
FC1F
1C38
1FF8
3FFC
3FFE
19CC
01C0
0180
ENDCHAR
STARTCHAR 0078
ENCODING 120
SWIDTH 1020 0
DWIDTH 17 0
BBX 16 13 0 -1
BITMAP
7800
3C00
CC40
4E6C
FCFC
2BFC
03CF
0187
0386
07CF
00FF
00F8
00D8
ENDCHAR
STARTCHAR 0079
ENCODING 121
SWIDTH 1020 0
DWIDTH 17 0
BBX 16 15 0 -2
BITMAP
0300
0FDF
1E1C
3E1F
7F3E
E3BC
61F0
01E0
03F0
07B8
0F1C
3C0E
780F
7007
2002
ENDCHAR
STARTCHAR 007A
ENCODING 122
SWIDTH 1020 0
DWIDTH 17 0
BBX 16 17 0 -3
BITMAP
0020
0040
00C0
00C0
0180
0180
0180
0187
7FFE
CFF8
DF00
7B80
0780
0C80
0D80
0780
0300
ENDCHAR
STARTCHAR 007B
ENCODING 123
SWIDTH 1020 0
DWIDTH 17 0
BBX 16 15 0 -2
BITMAP
001C
001C
0016
0003
0003
0001
0001
C001
C001
C001
4003
6006
300C
1C38
07F0
ENDCHAR
STARTCHAR 007C
ENCODING 124
SWIDTH 1020 0
DWIDTH 17 0
BBX 16 15 0 -2
BITMAP
1C00
3800
2800
6000
4000
C000
C000
C001
C001
C001
4003
6006
300C
1C18
07F0
ENDCHAR
STARTCHAR 007D
ENCODING 125
SWIDTH 480 0
DWIDTH 8 0
BBX 0 0 0 0
BITMAP
ENDCHAR
STARTCHAR 007E
ENCODING 126
SWIDTH 480 0
DWIDTH 8 0
BBX 0 0 0 0
BITMAP
ENDCHAR
STARTCHAR 00A0
ENCODING 160
SWIDTH 240 0
DWIDTH 4 0
BBX 0 0 0 0
BITMAP
ENDCHAR
STARTCHAR 00A1
ENCODING 161
SWIDTH 360 0
DWIDTH 6 0
BBX 0 0 0 0
BITMAP
ENDCHAR
STARTCHAR 00A2
ENCODING 162
SWIDTH 540 0
DWIDTH 9 0
BBX 0 0 0 0
BITMAP
ENDCHAR
STARTCHAR 00A3
ENCODING 163
SWIDTH 480 0
DWIDTH 8 0
BBX 0 0 0 0
BITMAP
ENDCHAR
STARTCHAR 00A4
ENCODING 164
SWIDTH 480 0
DWIDTH 8 0
BBX 0 0 0 0
BITMAP
ENDCHAR
STARTCHAR 00A5
ENCODING 165
SWIDTH 600 0
DWIDTH 10 0
BBX 0 0 0 0
BITMAP
ENDCHAR
STARTCHAR 00A6
ENCODING 166
SWIDTH 480 0
DWIDTH 8 0
BBX 0 0 0 0
BITMAP
ENDCHAR
STARTCHAR 00A7
ENCODING 167
SWIDTH 480 0
DWIDTH 8 0
BBX 0 0 0 0
BITMAP
ENDCHAR
STARTCHAR 00A8
ENCODING 168
SWIDTH 540 0
DWIDTH 9 0
BBX 0 0 0 0
BITMAP
ENDCHAR
STARTCHAR 00A9
ENCODING 169
SWIDTH 840 0
DWIDTH 14 0
BBX 0 0 0 0
BITMAP
ENDCHAR
STARTCHAR 00AA
ENCODING 170
SWIDTH 300 0
DWIDTH 5 0
BBX 0 0 0 0
BITMAP
ENDCHAR
STARTCHAR 00AB
ENCODING 171
SWIDTH 480 0
DWIDTH 8 0
BBX 0 0 0 0
BITMAP
ENDCHAR
STARTCHAR 00AC
ENCODING 172
SWIDTH 480 0
DWIDTH 8 0
BBX 0 0 0 0
BITMAP
ENDCHAR
STARTCHAR 00AD
ENCODING 173
SWIDTH 1020 0
DWIDTH 17 0
BBX 16 17 0 -3
BITMAP
01C0
0E70
180C
3026
4822
4461
87E1
87E1
87E1
87E1
87E1
4061
402A
2016
100C
0E38
03C0
ENDCHAR
STARTCHAR 00AE
ENCODING 174
SWIDTH 840 0
DWIDTH 14 0
BBX 0 0 0 0
BITMAP
ENDCHAR
STARTCHAR 00AF
ENCODING 175
SWIDTH 360 0
DWIDTH 6 0
BBX 0 0 0 0
BITMAP
ENDCHAR
STARTCHAR 00B0
ENCODING 176
SWIDTH 360 0
DWIDTH 6 0
BBX 0 0 0 0
BITMAP
ENDCHAR
STARTCHAR 00B1
ENCODING 177
SWIDTH 480 0
DWIDTH 8 0
BBX 0 0 0 0
BITMAP
ENDCHAR
STARTCHAR 00B2
ENCODING 178
SWIDTH 480 0
DWIDTH 8 0
BBX 0 0 0 0
BITMAP
ENDCHAR
STARTCHAR 00B3
ENCODING 179
SWIDTH 480 0
DWIDTH 8 0
BBX 0 0 0 0
BITMAP
ENDCHAR
STARTCHAR 00B4
ENCODING 180
SWIDTH 540 0
DWIDTH 9 0
BBX 0 0 0 0
BITMAP
ENDCHAR
STARTCHAR 00B5
ENCODING 181
SWIDTH 600 0
DWIDTH 10 0
BBX 0 0 0 0
BITMAP
ENDCHAR
STARTCHAR 00B6
ENCODING 182
SWIDTH 540 0
DWIDTH 9 0
BBX 0 0 0 0
BITMAP
ENDCHAR
STARTCHAR 00B7
ENCODING 183
SWIDTH 240 0
DWIDTH 4 0
BBX 0 0 0 0
BITMAP
ENDCHAR
STARTCHAR 00B8
ENCODING 184
SWIDTH 540 0
DWIDTH 9 0
BBX 0 0 0 0
BITMAP
ENDCHAR
STARTCHAR 00B9
ENCODING 185
SWIDTH 480 0
DWIDTH 8 0
BBX 0 0 0 0
BITMAP
ENDCHAR
STARTCHAR 00BA
ENCODING 186
SWIDTH 360 0
DWIDTH 6 0
BBX 0 0 0 0
BITMAP
ENDCHAR
STARTCHAR 00BB
ENCODING 187
SWIDTH 480 0
DWIDTH 8 0
BBX 0 0 0 0
BITMAP
ENDCHAR
STARTCHAR 00BC
ENCODING 188
SWIDTH 840 0
DWIDTH 14 0
BBX 0 0 0 0
BITMAP
ENDCHAR
STARTCHAR 00BD
ENCODING 189
SWIDTH 960 0
DWIDTH 16 0
BBX 0 0 0 0
BITMAP
ENDCHAR
STARTCHAR 00BE
ENCODING 190
SWIDTH 840 0
DWIDTH 14 0
BBX 0 0 0 0
BITMAP
ENDCHAR
STARTCHAR 00BF
ENCODING 191
SWIDTH 360 0
DWIDTH 6 0
BBX 0 0 0 0
BITMAP
ENDCHAR
STARTCHAR 00C0
ENCODING 192
SWIDTH 780 0
DWIDTH 13 0
BBX 0 0 0 0
BITMAP
ENDCHAR
STARTCHAR 00C1
ENCODING 193
SWIDTH 780 0
DWIDTH 13 0
BBX 0 0 0 0
BITMAP
ENDCHAR
STARTCHAR 00C2
ENCODING 194
SWIDTH 780 0
DWIDTH 13 0
BBX 0 0 0 0
BITMAP
ENDCHAR
STARTCHAR 00C3
ENCODING 195
SWIDTH 780 0
DWIDTH 13 0
BBX 0 0 0 0
BITMAP
ENDCHAR
STARTCHAR 00C4
ENCODING 196
SWIDTH 780 0
DWIDTH 13 0
BBX 0 0 0 0
BITMAP
ENDCHAR
STARTCHAR 00C5
ENCODING 197
SWIDTH 780 0
DWIDTH 13 0
BBX 0 0 0 0
BITMAP
ENDCHAR
STARTCHAR 00C6
ENCODING 198
SWIDTH 1080 0
DWIDTH 18 0
BBX 0 0 0 0
BITMAP
ENDCHAR
STARTCHAR 00C7
ENCODING 199
SWIDTH 720 0
DWIDTH 12 0
BBX 0 0 0 0
BITMAP
ENDCHAR
STARTCHAR 00C8
ENCODING 200
SWIDTH 600 0
DWIDTH 10 0
BBX 0 0 0 0
BITMAP
ENDCHAR
STARTCHAR 00C9
ENCODING 201
SWIDTH 600 0
DWIDTH 10 0
BBX 0 0 0 0
BITMAP
ENDCHAR
STARTCHAR 00CA
ENCODING 202
SWIDTH 600 0
DWIDTH 10 0
BBX 0 0 0 0
BITMAP
ENDCHAR
STARTCHAR 00CB
ENCODING 203
SWIDTH 600 0
DWIDTH 10 0
BBX 0 0 0 0
BITMAP
ENDCHAR
STARTCHAR 00CC
ENCODING 204
SWIDTH 300 0
DWIDTH 5 0
BBX 0 0 0 0
BITMAP
ENDCHAR
STARTCHAR 00CD
ENCODING 205
SWIDTH 300 0
DWIDTH 5 0
BBX 0 0 0 0
BITMAP
ENDCHAR
STARTCHAR 00CE
ENCODING 206
SWIDTH 300 0
DWIDTH 5 0
BBX 0 0 0 0
BITMAP
ENDCHAR
STARTCHAR 00CF
ENCODING 207
SWIDTH 300 0
DWIDTH 5 0
BBX 0 0 0 0
BITMAP
ENDCHAR
STARTCHAR 00D0
ENCODING 208
SWIDTH 780 0
DWIDTH 13 0
BBX 0 0 0 0
BITMAP
ENDCHAR
STARTCHAR 00D1
ENCODING 209
SWIDTH 780 0
DWIDTH 13 0
BBX 0 0 0 0
BITMAP
ENDCHAR
STARTCHAR 00D2
ENCODING 210
SWIDTH 780 0
DWIDTH 13 0
BBX 0 0 0 0
BITMAP
ENDCHAR
STARTCHAR 00D3
ENCODING 211
SWIDTH 780 0
DWIDTH 13 0
BBX 0 0 0 0
BITMAP
ENDCHAR
STARTCHAR 00D4
ENCODING 212
SWIDTH 780 0
DWIDTH 13 0
BBX 0 0 0 0
BITMAP
ENDCHAR
STARTCHAR 00D5
ENCODING 213
SWIDTH 780 0
DWIDTH 13 0
BBX 0 0 0 0
BITMAP
ENDCHAR
STARTCHAR 00D6
ENCODING 214
SWIDTH 780 0
DWIDTH 13 0
BBX 0 0 0 0
BITMAP
ENDCHAR
STARTCHAR 00D7
ENCODING 215
SWIDTH 480 0
DWIDTH 8 0
BBX 0 0 0 0
BITMAP
ENDCHAR
STARTCHAR 00D8
ENCODING 216
SWIDTH 780 0
DWIDTH 13 0
BBX 0 0 0 0
BITMAP
ENDCHAR
STARTCHAR 00D9
ENCODING 217
SWIDTH 720 0
DWIDTH 12 0
BBX 0 0 0 0
BITMAP
ENDCHAR
STARTCHAR 00DA
ENCODING 218
SWIDTH 720 0
DWIDTH 12 0
BBX 0 0 0 0
BITMAP
ENDCHAR
STARTCHAR 00DB
ENCODING 219
SWIDTH 720 0
DWIDTH 12 0
BBX 0 0 0 0
BITMAP
ENDCHAR
STARTCHAR 00DC
ENCODING 220
SWIDTH 720 0
DWIDTH 12 0
BBX 0 0 0 0
BITMAP
ENDCHAR
STARTCHAR 00DD
ENCODING 221
SWIDTH 600 0
DWIDTH 10 0
BBX 0 0 0 0
BITMAP
ENDCHAR
STARTCHAR 00DE
ENCODING 222
SWIDTH 540 0
DWIDTH 9 0
BBX 0 0 0 0
BITMAP
ENDCHAR
STARTCHAR 00DF
ENCODING 223
SWIDTH 600 0
DWIDTH 10 0
BBX 0 0 0 0
BITMAP
ENDCHAR
STARTCHAR 00E0
ENCODING 224
SWIDTH 480 0
DWIDTH 8 0
BBX 0 0 0 0
BITMAP
ENDCHAR
STARTCHAR 00E1
ENCODING 225
SWIDTH 480 0
DWIDTH 8 0
BBX 0 0 0 0
BITMAP
ENDCHAR
STARTCHAR 00E2
ENCODING 226
SWIDTH 480 0
DWIDTH 8 0
BBX 0 0 0 0
BITMAP
ENDCHAR
STARTCHAR 00E3
ENCODING 227
SWIDTH 480 0
DWIDTH 8 0
BBX 0 0 0 0
BITMAP
ENDCHAR
STARTCHAR 00E4
ENCODING 228
SWIDTH 480 0
DWIDTH 8 0
BBX 0 0 0 0
BITMAP
ENDCHAR
STARTCHAR 00E5
ENCODING 229
SWIDTH 480 0
DWIDTH 8 0
BBX 0 0 0 0
BITMAP
ENDCHAR
STARTCHAR 00E6
ENCODING 230
SWIDTH 720 0
DWIDTH 12 0
BBX 0 0 0 0
BITMAP
ENDCHAR
STARTCHAR 00E7
ENCODING 231
SWIDTH 480 0
DWIDTH 8 0
BBX 0 0 0 0
BITMAP
ENDCHAR
STARTCHAR 00E8
ENCODING 232
SWIDTH 480 0
DWIDTH 8 0
BBX 0 0 0 0
BITMAP
ENDCHAR
STARTCHAR 00E9
ENCODING 233
SWIDTH 480 0
DWIDTH 8 0
BBX 0 0 0 0
BITMAP
ENDCHAR
STARTCHAR 00EA
ENCODING 234
SWIDTH 480 0
DWIDTH 8 0
BBX 0 0 0 0
BITMAP
ENDCHAR
STARTCHAR 00EB
ENCODING 235
SWIDTH 480 0
DWIDTH 8 0
BBX 0 0 0 0
BITMAP
ENDCHAR
STARTCHAR 00EC
ENCODING 236
SWIDTH 240 0
DWIDTH 4 0
BBX 0 0 0 0
BITMAP
ENDCHAR
STARTCHAR 00ED
ENCODING 237
SWIDTH 240 0
DWIDTH 4 0
BBX 0 0 0 0
BITMAP
ENDCHAR
STARTCHAR 00EE
ENCODING 238
SWIDTH 240 0
DWIDTH 4 0
BBX 0 0 0 0
BITMAP
ENDCHAR
STARTCHAR 00EF
ENCODING 239
SWIDTH 240 0
DWIDTH 4 0
BBX 0 0 0 0
BITMAP
ENDCHAR
STARTCHAR 00F0
ENCODING 240
SWIDTH 540 0
DWIDTH 9 0
BBX 0 0 0 0
BITMAP
ENDCHAR
STARTCHAR 00F1
ENCODING 241
SWIDTH 540 0
DWIDTH 9 0
BBX 0 0 0 0
BITMAP
ENDCHAR
STARTCHAR 00F2
ENCODING 242
SWIDTH 480 0
DWIDTH 8 0
BBX 0 0 0 0
BITMAP
ENDCHAR
STARTCHAR 00F3
ENCODING 243
SWIDTH 480 0
DWIDTH 8 0
BBX 0 0 0 0
BITMAP
ENDCHAR
STARTCHAR 00F4
ENCODING 244
SWIDTH 480 0
DWIDTH 8 0
BBX 0 0 0 0
BITMAP
ENDCHAR
STARTCHAR 00F5
ENCODING 245
SWIDTH 480 0
DWIDTH 8 0
BBX 0 0 0 0
BITMAP
ENDCHAR
STARTCHAR 00F6
ENCODING 246
SWIDTH 480 0
DWIDTH 8 0
BBX 0 0 0 0
BITMAP
ENDCHAR
STARTCHAR 00F7
ENCODING 247
SWIDTH 480 0
DWIDTH 8 0
BBX 0 0 0 0
BITMAP
ENDCHAR
STARTCHAR 00F8
ENCODING 248
SWIDTH 480 0
DWIDTH 8 0
BBX 0 0 0 0
BITMAP
ENDCHAR
STARTCHAR 00F9
ENCODING 249
SWIDTH 540 0
DWIDTH 9 0
BBX 0 0 0 0
BITMAP
ENDCHAR
STARTCHAR 00FA
ENCODING 250
SWIDTH 540 0
DWIDTH 9 0
BBX 0 0 0 0
BITMAP
ENDCHAR
STARTCHAR 00FB
ENCODING 251
SWIDTH 540 0
DWIDTH 9 0
BBX 0 0 0 0
BITMAP
ENDCHAR
STARTCHAR 00FC
ENCODING 252
SWIDTH 540 0
DWIDTH 9 0
BBX 0 0 0 0
BITMAP
ENDCHAR
STARTCHAR 00FD
ENCODING 253
SWIDTH 420 0
DWIDTH 7 0
BBX 0 0 0 0
BITMAP
ENDCHAR
STARTCHAR 00FE
ENCODING 254
SWIDTH 480 0
DWIDTH 8 0
BBX 0 0 0 0
BITMAP
ENDCHAR
STARTCHAR 00FF
ENCODING 255
SWIDTH 420 0
DWIDTH 7 0
BBX 0 0 0 0
BITMAP
ENDCHAR
STARTCHAR 0131
ENCODING 305
SWIDTH 240 0
DWIDTH 4 0
BBX 0 0 0 0
BITMAP
ENDCHAR
STARTCHAR 02C6
ENCODING 710
SWIDTH 540 0
DWIDTH 9 0
BBX 0 0 0 0
BITMAP
ENDCHAR
STARTCHAR 02C7
ENCODING 711
SWIDTH 540 0
DWIDTH 9 0
BBX 0 0 0 0
BITMAP
ENDCHAR
STARTCHAR 02C9
ENCODING 713
SWIDTH 540 0
DWIDTH 9 0
BBX 0 0 0 0
BITMAP
ENDCHAR
STARTCHAR 02D8
ENCODING 728
SWIDTH 540 0
DWIDTH 9 0
BBX 0 0 0 0
BITMAP
ENDCHAR
STARTCHAR 02D9
ENCODING 729
SWIDTH 540 0
DWIDTH 9 0
BBX 0 0 0 0
BITMAP
ENDCHAR
STARTCHAR 02DA
ENCODING 730
SWIDTH 540 0
DWIDTH 9 0
BBX 0 0 0 0
BITMAP
ENDCHAR
STARTCHAR 02DB
ENCODING 731
SWIDTH 540 0
DWIDTH 9 0
BBX 0 0 0 0
BITMAP
ENDCHAR
STARTCHAR 02DC
ENCODING 732
SWIDTH 540 0
DWIDTH 9 0
BBX 0 0 0 0
BITMAP
ENDCHAR
STARTCHAR 02DD
ENCODING 733
SWIDTH 540 0
DWIDTH 9 0
BBX 0 0 0 0
BITMAP
ENDCHAR
STARTCHAR 037E
ENCODING 894
SWIDTH 1020 0
DWIDTH 17 0
BBX 17 17 0 -3
BITMAP
008000
008000
008000
008000
008000
008000
008000
008000
FFFF80
008000
008000
008000
008000
008000
008000
008000
008000
ENDCHAR
STARTCHAR 2013
ENCODING 8211
SWIDTH 540 0
DWIDTH 9 0
BBX 0 0 0 0
BITMAP
ENDCHAR
STARTCHAR 2014
ENCODING 8212
SWIDTH 1020 0
DWIDTH 17 0
BBX 0 0 0 0
BITMAP
ENDCHAR
STARTCHAR 2018
ENCODING 8216
SWIDTH 300 0
DWIDTH 5 0
BBX 0 0 0 0
BITMAP
ENDCHAR
STARTCHAR 2019
ENCODING 8217
SWIDTH 300 0
DWIDTH 5 0
BBX 0 0 0 0
BITMAP
ENDCHAR
STARTCHAR 201A
ENCODING 8218
SWIDTH 300 0
DWIDTH 5 0
BBX 0 0 0 0
BITMAP
ENDCHAR
STARTCHAR 201C
ENCODING 8220
SWIDTH 480 0
DWIDTH 8 0
BBX 0 0 0 0
BITMAP
ENDCHAR
STARTCHAR 201D
ENCODING 8221
SWIDTH 480 0
DWIDTH 8 0
BBX 0 0 0 0
BITMAP
ENDCHAR
STARTCHAR 201E
ENCODING 8222
SWIDTH 480 0
DWIDTH 8 0
BBX 0 0 0 0
BITMAP
ENDCHAR
STARTCHAR 2020
ENCODING 8224
SWIDTH 480 0
DWIDTH 8 0
BBX 0 0 0 0
BITMAP
ENDCHAR
STARTCHAR 2021
ENCODING 8225
SWIDTH 480 0
DWIDTH 8 0
BBX 0 0 0 0
BITMAP
ENDCHAR
STARTCHAR 2022
ENCODING 8226
SWIDTH 540 0
DWIDTH 9 0
BBX 0 0 0 0
BITMAP
ENDCHAR
STARTCHAR 2026
ENCODING 8230
SWIDTH 1020 0
DWIDTH 17 0
BBX 0 0 0 0
BITMAP
ENDCHAR
STARTCHAR 2039
ENCODING 8249
SWIDTH 300 0
DWIDTH 5 0
BBX 0 0 0 0
BITMAP
ENDCHAR
STARTCHAR 203A
ENCODING 8250
SWIDTH 300 0
DWIDTH 5 0
BBX 0 0 0 0
BITMAP
ENDCHAR
STARTCHAR 2044
ENCODING 8260
SWIDTH 180 0
DWIDTH 3 0
BBX 0 0 0 0
BITMAP
ENDCHAR
STARTCHAR 20A3
ENCODING 8355
SWIDTH 480 0
DWIDTH 8 0
BBX 0 0 0 0
BITMAP
ENDCHAR
STARTCHAR 20A4
ENCODING 8356
SWIDTH 480 0
DWIDTH 8 0
BBX 0 0 0 0
BITMAP
ENDCHAR
STARTCHAR 20A7
ENCODING 8359
SWIDTH 1020 0
DWIDTH 17 0
BBX 0 0 0 0
BITMAP
ENDCHAR
STARTCHAR 20AC
ENCODING 8364
SWIDTH 480 0
DWIDTH 8 0
BBX 0 0 0 0
BITMAP
ENDCHAR
STARTCHAR 2116
ENCODING 8470
SWIDTH 1140 0
DWIDTH 19 0
BBX 0 0 0 0
BITMAP
ENDCHAR
STARTCHAR 2122
ENCODING 8482
SWIDTH 720 0
DWIDTH 12 0
BBX 0 0 0 0
BITMAP
ENDCHAR
STARTCHAR 2202
ENCODING 8706
SWIDTH 480 0
DWIDTH 8 0
BBX 0 0 0 0
BITMAP
ENDCHAR
STARTCHAR 2206
ENCODING 8710
SWIDTH 540 0
DWIDTH 9 0
BBX 0 0 0 0
BITMAP
ENDCHAR
STARTCHAR 220F
ENCODING 8719
SWIDTH 780 0
DWIDTH 13 0
BBX 0 0 0 0
BITMAP
ENDCHAR
STARTCHAR 2211
ENCODING 8721
SWIDTH 600 0
DWIDTH 10 0
BBX 0 0 0 0
BITMAP
ENDCHAR
STARTCHAR 2212
ENCODING 8722
SWIDTH 480 0
DWIDTH 8 0
BBX 0 0 0 0
BITMAP
ENDCHAR
STARTCHAR 2215
ENCODING 8725
SWIDTH 180 0
DWIDTH 3 0
BBX 0 0 0 0
BITMAP
ENDCHAR
STARTCHAR 2219
ENCODING 8729
SWIDTH 240 0
DWIDTH 4 0
BBX 0 0 0 0
BITMAP
ENDCHAR
STARTCHAR 221A
ENCODING 8730
SWIDTH 480 0
DWIDTH 8 0
BBX 0 0 0 0
BITMAP
ENDCHAR
STARTCHAR 221E
ENCODING 8734
SWIDTH 480 0
DWIDTH 8 0
BBX 0 0 0 0
BITMAP
ENDCHAR
STARTCHAR 222B
ENCODING 8747
SWIDTH 360 0
DWIDTH 6 0
BBX 0 0 0 0
BITMAP
ENDCHAR
STARTCHAR 2248
ENCODING 8776
SWIDTH 480 0
DWIDTH 8 0
BBX 0 0 0 0
BITMAP
ENDCHAR
STARTCHAR 2264
ENCODING 8804
SWIDTH 480 0
DWIDTH 8 0
BBX 0 0 0 0
BITMAP
ENDCHAR
STARTCHAR 2265
ENCODING 8805
SWIDTH 480 0
DWIDTH 8 0
BBX 0 0 0 0
BITMAP
ENDCHAR
STARTCHAR F001
ENCODING 61441
SWIDTH 540 0
DWIDTH 9 0
BBX 0 0 0 0
BITMAP
ENDCHAR
STARTCHAR F002
ENCODING 61442
SWIDTH 540 0
DWIDTH 9 0
BBX 0 0 0 0
BITMAP
ENDCHAR
STARTCHAR FB01
ENCODING 64257
SWIDTH 540 0
DWIDTH 9 0
BBX 0 0 0 0
BITMAP
ENDCHAR
STARTCHAR FB02
ENCODING 64258
SWIDTH 540 0
DWIDTH 9 0
BBX 0 0 0 0
BITMAP
ENDCHAR
ENDFONT
